<mxfile host="app.diagrams.net" modified="2023-11-26T23:53:09.459Z" agent="Mozilla/5.0 (Windows NT 10.0; Win64; x64) AppleWebKit/537.36 (KHTML, like Gecko) Chrome/119.0.0.0 Safari/537.36 Edg/119.0.0.0" etag="l4HOVpzQO4t8_aW4uWdw" version="22.1.4" type="github">
  <diagram name="Page-1" id="e7e014a7-5840-1c2e-5031-d8a46d1fe8dd">
    <mxGraphModel dx="1849" dy="1819" grid="1" gridSize="10" guides="1" tooltips="1" connect="1" arrows="1" fold="1" page="1" pageScale="1" pageWidth="1169" pageHeight="826" background="none" math="0" shadow="0">
      <root>
        <mxCell id="0" />
        <mxCell id="1" parent="0" />
        <mxCell id="tthbH9q81I7elQCG5oLA-41" value="Client" style="swimlane;whiteSpace=wrap" vertex="1" parent="1">
          <mxGeometry x="125" y="-770" width="280" height="620" as="geometry" />
        </mxCell>
        <mxCell id="tthbH9q81I7elQCG5oLA-127" style="edgeStyle=orthogonalEdgeStyle;rounded=0;orthogonalLoop=1;jettySize=auto;html=1;entryX=0.5;entryY=0;entryDx=0;entryDy=0;" edge="1" parent="tthbH9q81I7elQCG5oLA-41" source="tthbH9q81I7elQCG5oLA-42" target="tthbH9q81I7elQCG5oLA-51">
          <mxGeometry relative="1" as="geometry" />
        </mxCell>
        <mxCell id="tthbH9q81I7elQCG5oLA-42" value="" style="ellipse;shape=startState;fillColor=#000000;strokeColor=#ff0000;" vertex="1" parent="tthbH9q81I7elQCG5oLA-41">
          <mxGeometry x="100" y="40" width="30" height="30" as="geometry" />
        </mxCell>
        <mxCell id="tthbH9q81I7elQCG5oLA-49" value="" style="edgeStyle=elbowEdgeStyle;elbow=horizontal;strokeColor=#FF0000;endArrow=open;endFill=1;rounded=0" edge="1" parent="tthbH9q81I7elQCG5oLA-41" source="tthbH9q81I7elQCG5oLA-47">
          <mxGeometry width="100" height="100" relative="1" as="geometry">
            <mxPoint x="160" y="290" as="sourcePoint" />
            <mxPoint x="60" y="135.0000000000001" as="targetPoint" />
            <Array as="points">
              <mxPoint x="30" y="250" />
            </Array>
          </mxGeometry>
        </mxCell>
        <mxCell id="tthbH9q81I7elQCG5oLA-51" value="Réclammer" style="" vertex="1" parent="tthbH9q81I7elQCG5oLA-41">
          <mxGeometry x="60" y="130" width="110" height="50" as="geometry" />
        </mxCell>
        <mxCell id="tthbH9q81I7elQCG5oLA-115" style="edgeStyle=orthogonalEdgeStyle;rounded=0;orthogonalLoop=1;jettySize=auto;html=1;entryX=0.5;entryY=0;entryDx=0;entryDy=0;" edge="1" parent="tthbH9q81I7elQCG5oLA-41" source="tthbH9q81I7elQCG5oLA-111" target="tthbH9q81I7elQCG5oLA-114">
          <mxGeometry relative="1" as="geometry" />
        </mxCell>
        <mxCell id="tthbH9q81I7elQCG5oLA-111" value="accusé réception" style="" vertex="1" parent="tthbH9q81I7elQCG5oLA-41">
          <mxGeometry x="80" y="460" width="110" height="50" as="geometry" />
        </mxCell>
        <mxCell id="tthbH9q81I7elQCG5oLA-114" value="" style="ellipse;shape=startState;fillColor=#000000;strokeColor=#ff0000;" vertex="1" parent="tthbH9q81I7elQCG5oLA-41">
          <mxGeometry x="120" y="550" width="30" height="30" as="geometry" />
        </mxCell>
        <mxCell id="tthbH9q81I7elQCG5oLA-52" value="Admin" style="swimlane;whiteSpace=wrap" vertex="1" parent="1">
          <mxGeometry x="405" y="-770" width="320" height="620" as="geometry" />
        </mxCell>
        <mxCell id="tthbH9q81I7elQCG5oLA-78" style="edgeStyle=orthogonalEdgeStyle;rounded=0;orthogonalLoop=1;jettySize=auto;html=1;entryX=0.5;entryY=0;entryDx=0;entryDy=0;" edge="1" parent="tthbH9q81I7elQCG5oLA-52" source="tthbH9q81I7elQCG5oLA-56" target="tthbH9q81I7elQCG5oLA-77">
          <mxGeometry relative="1" as="geometry" />
        </mxCell>
        <mxCell id="tthbH9q81I7elQCG5oLA-56" value="Contacter &#xa;client" style="" vertex="1" parent="tthbH9q81I7elQCG5oLA-52">
          <mxGeometry x="100" y="130" width="110" height="50" as="geometry" />
        </mxCell>
        <mxCell id="tthbH9q81I7elQCG5oLA-85" style="edgeStyle=orthogonalEdgeStyle;rounded=0;orthogonalLoop=1;jettySize=auto;html=1;exitX=1;exitY=0.5;exitDx=0;exitDy=0;" edge="1" parent="tthbH9q81I7elQCG5oLA-52" source="tthbH9q81I7elQCG5oLA-77" target="tthbH9q81I7elQCG5oLA-80">
          <mxGeometry relative="1" as="geometry" />
        </mxCell>
        <mxCell id="tthbH9q81I7elQCG5oLA-86" value="non" style="edgeLabel;html=1;align=center;verticalAlign=middle;resizable=0;points=[];" vertex="1" connectable="0" parent="tthbH9q81I7elQCG5oLA-85">
          <mxGeometry x="-0.4303" y="-1" relative="1" as="geometry">
            <mxPoint as="offset" />
          </mxGeometry>
        </mxCell>
        <mxCell id="tthbH9q81I7elQCG5oLA-87" style="edgeStyle=orthogonalEdgeStyle;rounded=0;orthogonalLoop=1;jettySize=auto;html=1;entryX=0.5;entryY=0;entryDx=0;entryDy=0;" edge="1" parent="tthbH9q81I7elQCG5oLA-52" source="tthbH9q81I7elQCG5oLA-77" target="tthbH9q81I7elQCG5oLA-79">
          <mxGeometry relative="1" as="geometry">
            <Array as="points">
              <mxPoint x="75" y="260" />
            </Array>
          </mxGeometry>
        </mxCell>
        <mxCell id="tthbH9q81I7elQCG5oLA-88" value="oui" style="edgeLabel;html=1;align=center;verticalAlign=middle;resizable=0;points=[];" vertex="1" connectable="0" parent="tthbH9q81I7elQCG5oLA-87">
          <mxGeometry x="-0.7515" y="2" relative="1" as="geometry">
            <mxPoint as="offset" />
          </mxGeometry>
        </mxCell>
        <mxCell id="tthbH9q81I7elQCG5oLA-77" value="changer?" style="rhombus;fillColor=#ffffc0;strokeColor=#ff0000;" vertex="1" parent="tthbH9q81I7elQCG5oLA-52">
          <mxGeometry x="115" y="240" width="80" height="40" as="geometry" />
        </mxCell>
        <mxCell id="tthbH9q81I7elQCG5oLA-110" style="edgeStyle=orthogonalEdgeStyle;rounded=0;orthogonalLoop=1;jettySize=auto;html=1;exitX=0.5;exitY=1;exitDx=0;exitDy=0;entryX=0.5;entryY=0;entryDx=0;entryDy=0;" edge="1" parent="tthbH9q81I7elQCG5oLA-52" source="tthbH9q81I7elQCG5oLA-79" target="tthbH9q81I7elQCG5oLA-109">
          <mxGeometry relative="1" as="geometry" />
        </mxCell>
        <mxCell id="tthbH9q81I7elQCG5oLA-79" value="Changer" style="" vertex="1" parent="tthbH9q81I7elQCG5oLA-52">
          <mxGeometry x="20" y="330" width="110" height="50" as="geometry" />
        </mxCell>
        <mxCell id="tthbH9q81I7elQCG5oLA-80" value="Retourner" style="" vertex="1" parent="tthbH9q81I7elQCG5oLA-52">
          <mxGeometry x="180" y="310" width="110" height="50" as="geometry" />
        </mxCell>
        <mxCell id="tthbH9q81I7elQCG5oLA-109" value="Informer&#xa;fournisseur" style="" vertex="1" parent="tthbH9q81I7elQCG5oLA-52">
          <mxGeometry x="20" y="400" width="110" height="50" as="geometry" />
        </mxCell>
        <mxCell id="tthbH9q81I7elQCG5oLA-123" style="edgeStyle=orthogonalEdgeStyle;rounded=0;orthogonalLoop=1;jettySize=auto;html=1;exitX=0.75;exitY=0.5;exitDx=0;exitDy=0;exitPerimeter=0;" edge="1" parent="tthbH9q81I7elQCG5oLA-52" source="tthbH9q81I7elQCG5oLA-117" target="tthbH9q81I7elQCG5oLA-122">
          <mxGeometry relative="1" as="geometry">
            <Array as="points">
              <mxPoint x="222" y="460" />
              <mxPoint x="120" y="460" />
            </Array>
          </mxGeometry>
        </mxCell>
        <mxCell id="tthbH9q81I7elQCG5oLA-125" style="edgeStyle=orthogonalEdgeStyle;rounded=0;orthogonalLoop=1;jettySize=auto;html=1;exitX=0.25;exitY=0.5;exitDx=0;exitDy=0;exitPerimeter=0;" edge="1" parent="tthbH9q81I7elQCG5oLA-52" source="tthbH9q81I7elQCG5oLA-117" target="tthbH9q81I7elQCG5oLA-124">
          <mxGeometry relative="1" as="geometry">
            <Array as="points">
              <mxPoint x="260" y="387" />
            </Array>
          </mxGeometry>
        </mxCell>
        <mxCell id="tthbH9q81I7elQCG5oLA-117" value="" style="shape=line;strokeWidth=6;strokeColor=#ff0000;rotation=90;direction=south;" vertex="1" parent="tthbH9q81I7elQCG5oLA-52">
          <mxGeometry x="237.5" y="340" width="15" height="94" as="geometry" />
        </mxCell>
        <mxCell id="tthbH9q81I7elQCG5oLA-119" style="edgeStyle=orthogonalEdgeStyle;rounded=0;orthogonalLoop=1;jettySize=auto;html=1;exitX=0.5;exitY=1;exitDx=0;exitDy=0;entryX=0.539;entryY=0.256;entryDx=0;entryDy=0;entryPerimeter=0;" edge="1" parent="tthbH9q81I7elQCG5oLA-52" source="tthbH9q81I7elQCG5oLA-80" target="tthbH9q81I7elQCG5oLA-117">
          <mxGeometry relative="1" as="geometry" />
        </mxCell>
        <mxCell id="tthbH9q81I7elQCG5oLA-122" value="Rembourser&#xa;client" style="" vertex="1" parent="tthbH9q81I7elQCG5oLA-52">
          <mxGeometry x="50" y="500" width="110" height="50" as="geometry" />
        </mxCell>
        <mxCell id="tthbH9q81I7elQCG5oLA-124" value="Retourner&#xa;produit" style="" vertex="1" parent="tthbH9q81I7elQCG5oLA-52">
          <mxGeometry x="210" y="500" width="110" height="50" as="geometry" />
        </mxCell>
        <mxCell id="tthbH9q81I7elQCG5oLA-57" style="edgeStyle=orthogonalEdgeStyle;rounded=0;orthogonalLoop=1;jettySize=auto;html=1;entryX=0;entryY=0.5;entryDx=0;entryDy=0;" edge="1" parent="1" source="tthbH9q81I7elQCG5oLA-51" target="tthbH9q81I7elQCG5oLA-56">
          <mxGeometry relative="1" as="geometry" />
        </mxCell>
        <mxCell id="tthbH9q81I7elQCG5oLA-99" value="Admin" style="swimlane;whiteSpace=wrap" vertex="1" parent="1">
          <mxGeometry x="725" y="-770" width="320" height="620" as="geometry" />
        </mxCell>
        <mxCell id="tthbH9q81I7elQCG5oLA-108" value="Envoyer un nouveau&#xa;produit" style="" vertex="1" parent="tthbH9q81I7elQCG5oLA-99">
          <mxGeometry x="110" y="460" width="110" height="50" as="geometry" />
        </mxCell>
        <mxCell id="tthbH9q81I7elQCG5oLA-112" style="edgeStyle=orthogonalEdgeStyle;rounded=0;orthogonalLoop=1;jettySize=auto;html=1;entryX=0.5;entryY=0;entryDx=0;entryDy=0;" edge="1" parent="1" source="tthbH9q81I7elQCG5oLA-109" target="tthbH9q81I7elQCG5oLA-108">
          <mxGeometry relative="1" as="geometry" />
        </mxCell>
        <mxCell id="tthbH9q81I7elQCG5oLA-113" style="edgeStyle=orthogonalEdgeStyle;rounded=0;orthogonalLoop=1;jettySize=auto;html=1;exitX=0;exitY=0.5;exitDx=0;exitDy=0;entryX=1;entryY=0.5;entryDx=0;entryDy=0;" edge="1" parent="1" source="tthbH9q81I7elQCG5oLA-108" target="tthbH9q81I7elQCG5oLA-111">
          <mxGeometry relative="1" as="geometry" />
        </mxCell>
        <mxCell id="tthbH9q81I7elQCG5oLA-126" style="edgeStyle=orthogonalEdgeStyle;rounded=0;orthogonalLoop=1;jettySize=auto;html=1;entryX=1;entryY=0.75;entryDx=0;entryDy=0;" edge="1" parent="1" source="tthbH9q81I7elQCG5oLA-122" target="tthbH9q81I7elQCG5oLA-111">
          <mxGeometry relative="1" as="geometry" />
        </mxCell>
      </root>
    </mxGraphModel>
  </diagram>
</mxfile>
